<?xml version="1.0" encoding="UTF-8"?> <!-- Generator: Adobe Illustrator 24.0.1, SVG Export Plug-In . SVG Version: 6.00 Build 0) --> <svg xmlns="http://www.w3.org/2000/svg" xmlns:xlink="http://www.w3.org/1999/xlink" id="Arendal" x="0px" y="0px" viewBox="0 0 400 400" style="enable-background:new 0 0 400 400;" xml:space="preserve"> <style type="text/css"> .st0{fill-rule:evenodd;clip-rule:evenodd;fill:#FFD100;} .st1{fill:#FFD100;} .st2{fill-rule:evenodd;clip-rule:evenodd;fill:#009B3E;} .st3{fill-rule:evenodd;clip-rule:evenodd;fill:#00AC56;} </style> <g> <polygon class="st0" points="291,104 385.3,104 197.9,361.7 10.5,104 102.4,104 "></polygon> <path class="st1" d="M102.4,107.9H10.5v-7.8h91.9V107.9z M7.4,106.3l-4.5-6.2h7.7L7.4,106.3z M10.5,100.1l3.2,1.6l187.4,257.7 l-6.3,4.6L7.4,106.3L10.5,100.1z M201.1,364l-3.2,4.4l-3.2-4.4H201.1z M194.8,364v-4.6l187.4-257.7l6.3,4.6L201.1,364H194.8z M385.3,100.1h7.7l-4.5,6.2L385.3,100.1z M388.5,106.3l-3.2,1.6H291v-7.8h94.3L388.5,106.3z"></path> <path class="st2" d="M297.2,140.9c0,59.3-44.9,107.5-100.4,107.5c-55.4,0-100.4-48.1-100.4-107.5c0-59.3,44.9-107.5,100.4-107.5 C252.2,33.4,297.2,81.5,297.2,140.9"></path> <path class="st1" d="M301.1,140.9 M301.1,140.9h-7.8l-0.1-5.3l-0.4-5.3l-0.6-5.2l-0.9-5.1l-1.1-5l-1.3-4.9l-1.5-4.8l-1.7-4.7 l-1.9-4.6l-2.1-4.5l-2.3-4.3l-2.5-4.2l-2.7-4.1l-2.9-3.9l-3-3.8l-3.2-3.6l-3.3-3.4l-3.5-3.3l-3.6-3.1l-3.8-2.9l-3.9-2.7l-4-2.5 l-4.2-2.3l-4.3-2.1l-4.4-1.8l-4.5-1.6l-4.6-1.4l-4.7-1.1l-4.7-0.9l-4.8-0.7l-4.9-0.4l-5-0.1v-7.8l5.4,0.2l5.3,0.4l5.2,0.7l5.1,1 l5.1,1.3l5,1.5l4.9,1.8l4.7,2l4.6,2.2l4.5,2.5l4.4,2.7l4.2,2.9l4.1,3.1l3.9,3.3l3.8,3.5l3.6,3.7l3.4,3.9l3.3,4l3.1,4.2l2.9,4.4 l2.7,4.5l2.5,4.7l2.3,4.8l2.1,4.9l1.9,5.1l1.6,5.2l1.4,5.3l1.2,5.4l0.9,5.5l0.7,5.6l0.4,5.6L301.1,140.9z M196.8,29.5 M196.8,29.5 v7.8l-5,0.1l-4.9,0.4l-4.8,0.7l-4.7,0.9l-4.7,1.1l-4.6,1.4l-4.5,1.6l-4.4,1.8l-4.3,2.1l-4.2,2.3l-4,2.5l-3.9,2.7l-3.8,2.9l-3.6,3.1 l-3.5,3.3l-3.3,3.4l-3.2,3.6l-3,3.8l-2.9,3.9l-2.7,4.1l-2.5,4.2l-2.3,4.3l-2.1,4.5l-1.9,4.6l-1.7,4.7l-1.5,4.8l-1.3,4.9l-1.1,5 l-0.9,5.1l-0.6,5.2l-0.4,5.3l-0.1,5.3h-7.8l0.1-5.7l0.4-5.6l0.7-5.6l0.9-5.5l1.2-5.4l1.4-5.3l1.6-5.2l1.9-5.1l2.1-4.9l2.3-4.8 l2.5-4.7l2.7-4.5l2.9-4.4l3.1-4.2l3.3-4l3.4-3.9l3.6-3.7l3.8-3.5l3.9-3.3l4.1-3.1l4.2-2.9l4.4-2.7l4.5-2.5l4.6-2.2l4.7-2l4.9-1.8 l5-1.5l5.1-1.3l5.1-1l5.2-0.7l5.3-0.4L196.8,29.5z M92.4,140.9 M92.4,140.9h7.8l0.1,5.3l0.4,5.3l0.6,5.2l0.9,5.1l1.1,5l1.3,4.9 l1.5,4.8l1.7,4.7l1.9,4.6l2.1,4.5l2.3,4.3l2.5,4.2l2.7,4.1l2.9,3.9l3,3.8l3.2,3.6l3.3,3.4l3.5,3.3l3.6,3.1l3.8,2.9l3.9,2.7l4,2.5 l4.2,2.3l4.3,2.1l4.4,1.8l4.5,1.6l4.6,1.4l4.7,1.1l4.7,0.9l4.8,0.7l4.9,0.4l5,0.1v7.8l-5.4-0.2l-5.3-0.4l-5.2-0.7l-5.1-1l-5.1-1.3 l-5-1.5l-4.9-1.8l-4.7-2l-4.6-2.2l-4.5-2.5l-4.4-2.7l-4.2-2.9l-4.1-3.1l-3.9-3.3l-3.8-3.5l-3.6-3.7l-3.4-3.9l-3.3-4l-3.1-4.2 l-2.9-4.4l-2.7-4.5l-2.5-4.7l-2.3-4.8l-2.1-4.9l-1.9-5.1l-1.6-5.2l-1.4-5.3l-1.2-5.4l-0.9-5.5l-0.7-5.6l-0.4-5.6L92.4,140.9z M196.8,252.3 M196.8,252.3v-7.8l5-0.1l4.9-0.4l4.8-0.7l4.7-0.9l4.7-1.1l4.6-1.4l4.5-1.6l4.4-1.8l4.3-2.1l4.2-2.3l4-2.5l3.9-2.7 l3.8-2.9l3.6-3.1l3.5-3.3l3.3-3.4l3.2-3.6l3-3.8l2.9-3.9l2.7-4.1l2.5-4.2l2.3-4.3l2.1-4.5l1.9-4.6l1.7-4.7l1.5-4.8l1.3-4.9l1.1-5 l0.9-5.1l0.6-5.2l0.4-5.3l0.1-5.3h7.8l-0.1,5.7l-0.4,5.6l-0.7,5.6l-0.9,5.5l-1.2,5.4l-1.4,5.3l-1.6,5.2l-1.9,5.1l-2.1,4.9l-2.3,4.8 l-2.5,4.7l-2.7,4.5l-2.9,4.4l-3.1,4.2l-3.3,4l-3.4,3.9l-3.6,3.7l-3.8,3.5l-3.9,3.3l-4.1,3.1l-4.2,2.9l-4.4,2.7l-4.5,2.5l-4.6,2.2 l-4.7,2l-4.9,1.8l-5,1.5l-5.1,1.3l-5.1,1l-5.2,0.7l-5.3,0.4L196.8,252.3z"></path> <path class="st0" d="M146.6,215.3c0,0-37-20.5-35.4-78.1c1.7-61.9,49.3-79.5,49.3-79.5s-0.4,15,4.4,22.1c4.5,6.8,7,9.2,11,10.3 c11.2,3.1,9.3,2.5,26.5-0.7c0,0,5.7,0.5-4.4,8.8c-8.1,6.6-20.9,8.7-24.3,7.4c-3.7-1.5-12.5-1.5-22.1-15.5c0,0-15.5,14-19.9,36.8 c0,0,26.5-8.1,42,8.8l-11.8,14.7c0,0-14-12.5-30.2-2.2c0,0-6.6,19.1,23.6,47.1C155.5,195.4,156.2,203.5,146.6,215.3"></path> <path class="st0" d="M152.9,219.3c0,0,7.4-10.3,7-20.6c0,0,14,10.3,25,11c0,0,14.5,2.3,17.3-8.5c0,0,3.3-5.2-4.8-28 c0,0-7-18.4-3.2-43.5c0,0,1-12.5,19-38.3c8.6-12.2,14.7-17.3,14.7-17.3s-12.5-4.1-26.9,0.4c0,0-16.6,5.2-26.9,9.2 c0,0-8.8-6.3-9.2-28c0,0,23.2-12.5,55.6-4.1c0,0,24.7,3.7,36.5,33.5c0,0,9.2,15.1,7.4,42.7c0,0,0.7,28-12.5,62.6 c0,0,21.4-15.1,20.6-43.1c0,0,3.3-5.9,7.4,3.3c0,0,5.2,21-16.9,48.2c0,0-18.8,29.1-53.8,33.5c0,0-5.9,1.8-0.7-4.1 c11.4-13,32.2-49.8,36.8-92.1c0,0,8.1-32.4-6.3-57.8c0,0-9.6,9.9-20.6,46.4c0,0-5.5,25.4-0.7,57.4c0,0,4.8,17.7-3.3,32 c0,0-10.7,16.9-29.1,16.2C185.3,230.7,166.5,229.3,152.9,219.3"></path> <path class="st3" d="M148.5,261.5c0-5.4,4-5.9,5.5-5.9c3.2,0,5.7,1.9,5.7,5.3c0,2.9-1.9,4.3-3.5,5.4c-2.2,1.6-3.4,2.3-3.7,3.1h7.2 v2.9h-11.4c0.1-2,0.3-4,3.9-6.6c3-2.2,4.2-3,4.2-4.9c0-1.1-0.7-2.4-2.3-2.4c-2.3,0-2.4,1.9-2.4,3.1H148.5z"></path> <path class="st3" d="M161.6,261.5c0-5.4,4-5.9,5.5-5.9c3.2,0,5.7,1.9,5.7,5.3c0,2.9-1.9,4.3-3.5,5.4c-2.2,1.6-3.4,2.3-3.7,3.1h7.2 v2.9h-11.4c0.1-2,0.3-4,3.9-6.6c3-2.2,4.2-3,4.2-4.9c0-1.1-0.7-2.4-2.3-2.4c-2.3,0-2.4,1.9-2.4,3.1H161.6z"></path> <path class="st3" d="M185,258.4h0.5c3.2,0,4-1.6,4.1-2.9h2.7v16.7H189v-11.5h-4V258.4z"></path> <path class="st3" d="M203,255.6c3.9,0,5.8,2.7,5.8,8.6c0,5.9-1.9,8.6-5.8,8.6c-3.9,0-5.8-2.7-5.8-8.6 C197.3,258.3,199.1,255.6,203,255.6 M203,270.1c1.9,0,2.4-1.6,2.4-6c0-4.3-0.5-5.9-2.4-5.9c-1.9,0-2.4,1.6-2.4,5.9 C200.6,268.4,201.2,270.1,203,270.1z"></path> <path class="st3" d="M226.9,262.6h0.5c1,0,2.8-0.1,2.8-2.3c0-0.6-0.3-2.1-2.1-2.1c-2.3,0-2.3,2.1-2.3,2.7h-3.1 c0-3.1,1.8-5.4,5.5-5.4c2.2,0,5.2,1.1,5.2,4.7c0,1.7-1.1,2.8-2,3.2v0c0.6,0.2,2.5,1,2.5,3.9c0,3.2-2.3,5.4-5.7,5.4 c-1.6,0-5.8-0.4-5.8-5.6h3.2l0,0c0,0.9,0.2,2.9,2.4,2.9c1.3,0,2.5-0.9,2.5-2.8c0-2.3-2.2-2.4-3.7-2.4V262.6z"></path> <path class="st3" d="M236.6,258.5h0.5c3.2,0,4-1.6,4.1-2.9h2.7v16.7h-3.3v-11.5h-4V258.5z"></path> <path class="st3" d="M217.9,264.6c0,1.2-1,2.2-2.2,2.2c-1.2,0-2.2-1-2.2-2.2c0-1.2,1-2.2,2.2-2.2 C217,262.4,217.9,263.4,217.9,264.6"></path> <path class="st3" d="M181.9,264.6c0,1.2-1,2.2-2.2,2.2c-1.2,0-2.2-1-2.2-2.2c0-1.2,1-2.2,2.2-2.2 C180.9,262.4,181.9,263.4,181.9,264.6"></path> </g> </svg> 